# xmcd
#
# Track frame offsets:
#	150
#	11025
#	21225
#	37200
#	46500
#	60600
#	73125
#	82800
#	95775
#	108075
#	119400
#	131475
#	144075
#
# Disc length: 2055 seconds
#
# Revision: 0
# Processed by: cddbd v1.5.2PL0 Copyright (c) Steve Scherf et al.
# Submitted via: EasyCDDAExtractor 16.0.8.2
#
DISCID=aa08050d
DTITLE=Συλλογικός δίσκος - Αυταπάτες-Αντ. Κατινάρη-Θ. Σοφού
DYEAR=1975
DGENRE=Λαϊκή
TTITLE0=Πάνου Πόλυ - Αυταπάτες
TTITLE1=Μυτιληναίος Λευτέρης - Φιλοσόφησε λιγάκι
TTITLE2=Χρήστου Κωστής - Δεν σού υπόσχομαι
TTITLE3=Πάνου Πόλυ - Προσγειώσου
TTITLE4=Μυτιληναίος Λευτέρης - Είμαστε υπεύθυνοι
TTITLE5=Κατινάρης Αντώνης-Ροζάκη Σία - Σώπασε κι ο μπαγλαμάς
TTITLE6=Πάνου Πόλυ - Επ' αυτοφόρω
TTITLE7=Χρήστου Κωστής - Κινδυνεύουμε
TTITLE8=Μυτιληναίος Λευτέρης-Ροζάκη Σία - Μικροεπισόδια
TTITLE9=Πάνου Πόλυ - Τον δρόμο τον αμαρτωλό
TTITLE10=Μυτιληναίος Λευτέρης - Θα προσπαθήσω
TTITLE11=Χρήστου Κωστής - Χάσαμε την ευκαιρία
TTITLE12=Κατινάρης Αντώνης - Τη λένε Φραγκοσυριανή
EXTD=
EXTT0=
EXTT1=
EXTT2=
EXTT3=
EXTT4=
EXTT5=
EXTT6=
EXTT7=
EXTT8=
EXTT9=
EXTT10=
EXTT11=
EXTT12=
PLAYORDER=
